<svg width="237" height="50" viewBox="0 0 237 50" fill="none" xmlns="http://www.w3.org/2000/svg">
<path d="M32.2548 3.51568L25.307 8.03503C24.967 8.25622 25.018 8.76895 25.395 8.9188L27.0309 9.5691C27.181 9.62876 27.3506 9.61225 27.4864 9.52477L32.461 6.31942C32.6163 6.21938 32.814 6.21308 32.9753 6.30301L40.3648 10.423C40.5232 10.5113 40.6214 10.6784 40.6214 10.8597V19.6073C40.6214 19.7802 40.532 19.9408 40.3851 20.0321L38.5982 21.1416C38.4513 21.2328 38.3619 21.3935 38.3619 21.5664V23.3342C38.3619 23.7387 38.8172 23.9758 39.1486 23.7438L42.8729 21.1369C43.0066 21.0434 43.0862 20.8905 43.0862 20.7273V9.55668C43.0862 9.37555 42.9883 9.20859 42.8302 9.12022L32.7714 3.49835C32.6093 3.40778 32.4104 3.41445 32.2548 3.51568Z" fill="#EE0033"/>
<path d="M31.9607 40.7882L31.7571 32.5473C31.7471 32.1454 31.2868 31.9216 30.9598 32.1597L29.5366 33.1957C29.4043 33.292 29.3274 33.4463 29.3307 33.6089L29.4501 39.4817C29.4539 39.6676 29.3531 39.8406 29.1886 39.9301L21.7617 43.9755C21.6028 44.0621 21.4096 44.0571 21.256 43.9624L13.7566 39.3407C13.6102 39.2505 13.521 39.0918 13.5205 38.9205L13.5134 36.8279C13.5128 36.6566 13.4236 36.4979 13.2772 36.4077L11.7606 35.473C11.4151 35.2601 10.9703 35.5239 10.9942 35.9276L11.2607 40.4323C11.2703 40.5935 11.358 40.7399 11.496 40.825L21.071 46.7258C21.2244 46.8204 21.4174 46.8255 21.5763 46.7391L31.6988 41.239C31.8642 41.1491 31.9653 40.9751 31.9607 40.7882Z" fill="#EE0033"/>
<path d="M2.5 11.2902V19.6888C2.5 19.8782 2.607 20.0513 2.77639 20.136L8.15842 22.827C8.36009 22.9278 8.46932 23.1512 8.4251 23.3723L8.12838 24.8559C8.06373 25.1792 7.70937 25.3525 7.41449 25.205L0.276393 21.636C0.107001 21.5513 0 21.3782 0 21.1888V9.80034C0 9.61435 0.103239 9.44373 0.267997 9.35742L10.2733 4.11655C10.4156 4.04199 10.5852 4.04039 10.7289 4.11226L14.6853 6.09046C15.0382 6.26691 15.0573 6.76343 14.719 6.96642L13.2572 7.84345C13.0989 7.93846 12.9011 7.93846 12.7428 7.84345L10.7491 6.64729C10.5951 6.55487 10.4033 6.55218 10.2468 6.64025L2.75487 10.8544C2.59743 10.943 2.5 11.1096 2.5 11.2902Z" fill="#EE0033"/>
<path d="M21.6913 5.0099L34.1623 12.1468L21.6164 19.4878L9.17315 12.1468L21.6913 5.0099Z" fill="#EE0033"/>
<path d="M19.3469 23.0922L19.3469 37.636L6.67614 30.601L6.67614 16.2251L19.3469 23.0922Z" fill="#EE0033"/>
<path d="M36.5422 30.7689L36.5422 16.2251L23.8715 23.4641L23.8715 37.738L36.5422 30.7689Z" fill="#EE0033"/>
<path d="M60.5373 41.554H58.0273L57.6373 42.834H56.3073L58.7173 35.834H59.8473L62.2573 42.834H60.9273L60.5373 41.554ZM60.2273 40.544L59.2873 37.484L58.3373 40.544H60.2273ZM65.5102 35.834H67.7502C68.5568 35.834 69.1668 36.0207 69.5802 36.394C70.0002 36.7607 70.2102 37.304 70.2102 38.024C70.2102 38.7907 69.9935 39.374 69.5602 39.774C69.1335 40.1673 68.5135 40.364 67.7002 40.364H66.7702V42.834H65.5102V35.834ZM67.8102 39.344C68.1902 39.344 68.4802 39.2373 68.6802 39.024C68.8802 38.804 68.9802 38.4873 68.9802 38.074C68.9802 37.674 68.8735 37.3707 68.6602 37.164C68.4535 36.9573 68.1468 36.854 67.7402 36.854H66.7702V39.344H67.8102ZM71.2198 39.054C71.2198 38.4873 71.2098 38.0807 71.1898 37.834H72.2598C72.2864 38.094 72.2998 38.3873 72.2998 38.714V38.814H72.3298C72.4564 38.4807 72.6731 38.2173 72.9798 38.024C73.2864 37.8307 73.6398 37.734 74.0398 37.734C74.1598 37.734 74.2598 37.744 74.3398 37.764V38.664C74.2731 38.6507 74.1831 38.644 74.0698 38.644C73.7564 38.644 73.4664 38.7307 73.1998 38.904C72.9398 39.0707 72.7331 39.3007 72.5798 39.594C72.4264 39.8873 72.3498 40.204 72.3498 40.544V42.834H71.2198V39.054ZM77.2105 42.934C76.4238 42.934 75.8038 42.704 75.3505 42.244C74.9038 41.7773 74.6805 41.1407 74.6805 40.334C74.6805 39.5273 74.9038 38.894 75.3505 38.434C75.8038 37.9673 76.4238 37.734 77.2105 37.734C77.9971 37.734 78.6138 37.9673 79.0605 38.434C79.5138 38.894 79.7405 39.5273 79.7405 40.334C79.7405 41.1407 79.5138 41.7773 79.0605 42.244C78.6138 42.704 77.9971 42.934 77.2105 42.934ZM77.2105 42.084C77.6438 42.084 77.9838 41.9307 78.2305 41.624C78.4771 41.3107 78.6005 40.8807 78.6005 40.334C78.6005 39.7873 78.4771 39.3607 78.2305 39.054C77.9838 38.7407 77.6438 38.584 77.2105 38.584C76.7771 38.584 76.4371 38.7407 76.1905 39.054C75.9438 39.3607 75.8205 39.7873 75.8205 40.334C75.8205 40.8807 75.9438 41.3107 76.1905 41.624C76.4371 41.9307 76.7771 42.084 77.2105 42.084ZM82.4731 42.934C81.8198 42.934 81.3065 42.694 80.9331 42.214C80.5598 41.734 80.3731 41.0773 80.3731 40.244C80.3731 39.7373 80.4598 39.2973 80.6331 38.924C80.8065 38.544 81.0531 38.2507 81.3731 38.044C81.6931 37.8373 82.0698 37.734 82.5031 37.734C83.0965 37.734 83.5631 37.954 83.9031 38.394H83.9231V35.414H85.0531V41.524C85.0531 42.1973 85.0631 42.634 85.0831 42.834H84.0231C84.0098 42.7007 84.0031 42.464 84.0031 42.124H83.9831C83.8298 42.364 83.6131 42.5607 83.3331 42.714C83.0598 42.8607 82.7731 42.934 82.4731 42.934ZM82.6831 42.054C83.0565 42.054 83.3531 41.944 83.5731 41.724C83.7998 41.504 83.9131 41.2073 83.9131 40.834V39.844C83.9131 39.4773 83.7965 39.1773 83.5631 38.944C83.3365 38.704 83.0431 38.584 82.6831 38.584C82.3031 38.584 82.0098 38.7307 81.8031 39.024C81.6031 39.3173 81.5031 39.7307 81.5031 40.264C81.5031 40.8307 81.6065 41.2707 81.8131 41.584C82.0198 41.8973 82.3098 42.054 82.6831 42.054ZM87.8705 42.934C87.2971 42.934 86.8638 42.744 86.5705 42.364C86.2771 41.984 86.1305 41.4207 86.1305 40.674V37.834H87.2605V40.684C87.2605 41.1373 87.3371 41.474 87.4905 41.694C87.6438 41.9073 87.8805 42.014 88.2005 42.014C88.5805 42.014 88.8905 41.8707 89.1305 41.584C89.3771 41.2973 89.5005 40.9407 89.5005 40.514V37.834H90.6305V41.634C90.6305 42.0007 90.6605 42.4007 90.7205 42.834H89.6505C89.5905 42.514 89.5605 42.2207 89.5605 41.954H89.5305C89.3971 42.254 89.1805 42.494 88.8805 42.674C88.5871 42.8473 88.2505 42.934 87.8705 42.934ZM93.9166 42.934C93.15 42.934 92.55 42.704 92.1166 42.244C91.69 41.784 91.4766 41.1473 91.4766 40.334C91.4766 39.5207 91.69 38.884 92.1166 38.424C92.55 37.964 93.15 37.734 93.9166 37.734C94.3633 37.734 94.7566 37.8207 95.0966 37.994C95.4366 38.1607 95.7 38.4007 95.8866 38.714L95.2066 39.314C95.0733 39.094 94.8966 38.924 94.6766 38.804C94.4566 38.6773 94.22 38.614 93.9666 38.614C93.54 38.614 93.2066 38.7673 92.9666 39.074C92.7266 39.374 92.6066 39.794 92.6066 40.334C92.6066 40.8673 92.7266 41.2873 92.9666 41.594C93.2066 41.9007 93.54 42.054 93.9666 42.054C94.22 42.054 94.4566 41.9907 94.6766 41.864C94.8966 41.7373 95.0733 41.564 95.2066 41.344L95.8866 41.944C95.7 42.264 95.4366 42.5107 95.0966 42.684C94.7633 42.8507 94.37 42.934 93.9166 42.934ZM98.6199 42.934C98.1333 42.934 97.7499 42.794 97.4699 42.514C97.1966 42.2273 97.0599 41.834 97.0599 41.334V38.684H96.1599V37.834H97.0599V36.534L98.1599 36.204H98.1999V37.834H99.6399V38.684H98.1999V41.184C98.1999 41.484 98.2633 41.7073 98.3899 41.854C98.5233 41.994 98.7266 42.064 98.9999 42.064C99.2933 42.064 99.5333 42.024 99.7199 41.944L99.7799 42.744C99.5066 42.8707 99.1199 42.934 98.6199 42.934ZM105.335 42.934C104.549 42.934 103.929 42.704 103.475 42.244C103.029 41.7773 102.805 41.1407 102.805 40.334C102.805 39.5273 103.029 38.894 103.475 38.434C103.929 37.9673 104.549 37.734 105.335 37.734C106.122 37.734 106.739 37.9673 107.185 38.434C107.639 38.894 107.865 39.5273 107.865 40.334C107.865 41.1407 107.639 41.7773 107.185 42.244C106.739 42.704 106.122 42.934 105.335 42.934ZM105.335 42.084C105.769 42.084 106.109 41.9307 106.355 41.624C106.602 41.3107 106.725 40.8807 106.725 40.334C106.725 39.7873 106.602 39.3607 106.355 39.054C106.109 38.7407 105.769 38.584 105.335 38.584C104.902 38.584 104.562 38.7407 104.315 39.054C104.069 39.3607 103.945 39.7873 103.945 40.334C103.945 40.8807 104.069 41.3107 104.315 41.624C104.562 41.9307 104.902 42.084 105.335 42.084ZM109.118 38.614H108.298V37.834H109.118V37.224C109.118 36.7373 109.268 36.3573 109.568 36.084C109.868 35.804 110.278 35.664 110.798 35.664C111.025 35.664 111.238 35.7007 111.438 35.774C111.638 35.8407 111.805 35.9373 111.938 36.064L111.538 36.744C111.458 36.6773 111.365 36.624 111.258 36.584C111.151 36.544 111.041 36.524 110.928 36.524C110.721 36.524 110.558 36.594 110.438 36.734C110.318 36.8673 110.258 37.054 110.258 37.294V37.834H111.668V38.614H110.258V42.834H109.118V38.614ZM120.364 35.834L117.944 42.834H116.774L114.354 35.834H115.684L117.364 41.204L119.034 35.834H120.364ZM121.833 37.154C121.606 37.154 121.423 37.094 121.283 36.974C121.149 36.8473 121.083 36.6807 121.083 36.474C121.083 36.2607 121.149 36.094 121.283 35.974C121.423 35.8473 121.606 35.784 121.833 35.784C122.059 35.784 122.239 35.8473 122.373 35.974C122.513 36.094 122.583 36.2607 122.583 36.474C122.583 36.6807 122.513 36.8473 122.373 36.974C122.239 37.094 122.059 37.154 121.833 37.154ZM121.263 37.834H122.403V42.834H121.263V37.834ZM128.159 40.754H124.639C124.753 41.5673 125.196 41.974 125.969 41.974C126.263 41.974 126.523 41.9207 126.749 41.814C126.976 41.7073 127.186 41.5407 127.379 41.314L127.999 41.904C127.806 42.2173 127.519 42.4673 127.139 42.654C126.766 42.8407 126.356 42.934 125.909 42.934C125.143 42.934 124.546 42.7073 124.119 42.254C123.693 41.794 123.479 41.1573 123.479 40.344C123.479 39.5307 123.693 38.894 124.119 38.434C124.553 37.9673 125.143 37.734 125.889 37.734C126.603 37.734 127.159 37.964 127.559 38.424C127.959 38.884 128.159 39.5207 128.159 40.334V40.754ZM127.069 39.904C127.069 39.5107 126.963 39.204 126.749 38.984C126.536 38.764 126.239 38.654 125.859 38.654C125.513 38.654 125.233 38.7707 125.019 39.004C124.813 39.2307 124.683 39.5507 124.629 39.964H127.069V39.904ZM131.071 42.934C130.584 42.934 130.201 42.794 129.921 42.514C129.648 42.2273 129.511 41.834 129.511 41.334V38.684H128.611V37.834H129.511V36.534L130.611 36.204H130.651V37.834H132.091V38.684H130.651V41.184C130.651 41.484 130.714 41.7073 130.841 41.854C130.974 41.994 131.178 42.064 131.451 42.064C131.744 42.064 131.984 42.024 132.171 41.944L132.231 42.744C131.958 42.8707 131.571 42.934 131.071 42.934ZM135.134 42.934C134.647 42.934 134.264 42.794 133.984 42.514C133.71 42.2273 133.574 41.834 133.574 41.334V38.684H132.674V37.834H133.574V36.534L134.674 36.204H134.714V37.834H136.154V38.684H134.714V41.184C134.714 41.484 134.777 41.7073 134.904 41.854C135.037 41.994 135.24 42.064 135.514 42.064C135.807 42.064 136.047 42.024 136.234 41.944L136.294 42.744C136.02 42.8707 135.634 42.934 135.134 42.934ZM141.626 40.754H138.106C138.219 41.5673 138.663 41.974 139.436 41.974C139.729 41.974 139.989 41.9207 140.216 41.814C140.443 41.7073 140.653 41.5407 140.846 41.314L141.466 41.904C141.273 42.2173 140.986 42.4673 140.606 42.654C140.233 42.8407 139.823 42.934 139.376 42.934C138.609 42.934 138.013 42.7073 137.586 42.254C137.159 41.794 136.946 41.1573 136.946 40.344C136.946 39.5307 137.159 38.894 137.586 38.434C138.019 37.9673 138.609 37.734 139.356 37.734C140.069 37.734 140.626 37.964 141.026 38.424C141.426 38.884 141.626 39.5207 141.626 40.334V40.754ZM140.536 39.904C140.536 39.5107 140.429 39.204 140.216 38.984C140.003 38.764 139.706 38.654 139.326 38.654C138.979 38.654 138.699 38.7707 138.486 39.004C138.279 39.2307 138.149 39.5507 138.096 39.964H140.536V39.904ZM143.808 42.934C143.401 42.934 143.091 42.824 142.878 42.604C142.671 42.3773 142.568 42.0473 142.568 41.614V35.414H143.708V41.624C143.708 41.804 143.745 41.934 143.818 42.014C143.891 42.0873 144.011 42.124 144.178 42.124C144.345 42.124 144.528 42.0807 144.728 41.994L144.898 42.624C144.611 42.8307 144.248 42.934 143.808 42.934ZM148.039 35.834H150.169C150.976 35.834 151.586 35.9807 151.999 36.274C152.419 36.5607 152.629 36.9873 152.629 37.554C152.629 37.9073 152.549 38.2073 152.389 38.454C152.229 38.694 151.979 38.8973 151.639 39.064V39.084C152.079 39.2307 152.399 39.4407 152.599 39.714C152.799 39.9873 152.899 40.3473 152.899 40.794C152.899 41.4607 152.703 41.9673 152.309 42.314C151.916 42.6607 151.343 42.834 150.589 42.834H148.039V35.834ZM150.329 38.674C150.656 38.674 150.909 38.5873 151.089 38.414C151.269 38.2407 151.359 37.9973 151.359 37.684C151.359 37.3907 151.259 37.174 151.059 37.034C150.859 36.8873 150.549 36.814 150.129 36.814H149.299V38.674H150.329ZM150.529 41.844C150.889 41.844 151.166 41.7473 151.359 41.554C151.553 41.3607 151.649 41.084 151.649 40.724C151.649 40.3373 151.529 40.054 151.289 39.874C151.056 39.694 150.683 39.604 150.169 39.604H149.299V41.844H150.529ZM155.165 42.934C154.759 42.934 154.449 42.824 154.235 42.604C154.029 42.3773 153.925 42.0473 153.925 41.614V35.414H155.065V41.624C155.065 41.804 155.102 41.934 155.175 42.014C155.249 42.0873 155.369 42.124 155.535 42.124C155.702 42.124 155.885 42.0807 156.085 41.994L156.255 42.624C155.969 42.8307 155.605 42.934 155.165 42.934ZM158.851 42.934C158.064 42.934 157.444 42.704 156.991 42.244C156.544 41.7773 156.321 41.1407 156.321 40.334C156.321 39.5273 156.544 38.894 156.991 38.434C157.444 37.9673 158.064 37.734 158.851 37.734C159.638 37.734 160.254 37.9673 160.701 38.434C161.154 38.894 161.381 39.5273 161.381 40.334C161.381 41.1407 161.154 41.7773 160.701 42.244C160.254 42.704 159.638 42.934 158.851 42.934ZM158.851 42.084C159.284 42.084 159.624 41.9307 159.871 41.624C160.118 41.3107 160.241 40.8807 160.241 40.334C160.241 39.7873 160.118 39.3607 159.871 39.054C159.624 38.7407 159.284 38.584 158.851 38.584C158.418 38.584 158.078 38.7407 157.831 39.054C157.584 39.3607 157.461 39.7873 157.461 40.334C157.461 40.8807 157.584 41.3107 157.831 41.624C158.078 41.9307 158.418 42.084 158.851 42.084ZM164.454 42.934C163.687 42.934 163.087 42.704 162.654 42.244C162.227 41.784 162.014 41.1473 162.014 40.334C162.014 39.5207 162.227 38.884 162.654 38.424C163.087 37.964 163.687 37.734 164.454 37.734C164.9 37.734 165.294 37.8207 165.634 37.994C165.974 38.1607 166.237 38.4007 166.424 38.714L165.744 39.314C165.61 39.094 165.434 38.924 165.214 38.804C164.994 38.6773 164.757 38.614 164.504 38.614C164.077 38.614 163.744 38.7673 163.504 39.074C163.264 39.374 163.144 39.794 163.144 40.334C163.144 40.8673 163.264 41.2873 163.504 41.594C163.744 41.9007 164.077 42.054 164.504 42.054C164.757 42.054 164.994 41.9907 165.214 41.864C165.434 41.7373 165.61 41.564 165.744 41.344L166.424 41.944C166.237 42.264 165.974 42.5107 165.634 42.684C165.3 42.8507 164.907 42.934 164.454 42.934ZM170.427 42.834L168.897 40.444L168.247 41.074V42.834H167.117V35.414H168.247V39.714L170.157 37.834H171.547L169.667 39.674L171.717 42.834H170.427ZM174.092 42.934C173.326 42.934 172.726 42.704 172.292 42.244C171.866 41.784 171.652 41.1473 171.652 40.334C171.652 39.5207 171.866 38.884 172.292 38.424C172.726 37.964 173.326 37.734 174.092 37.734C174.539 37.734 174.932 37.8207 175.272 37.994C175.612 38.1607 175.876 38.4007 176.062 38.714L175.382 39.314C175.249 39.094 175.072 38.924 174.852 38.804C174.632 38.6773 174.396 38.614 174.142 38.614C173.716 38.614 173.382 38.7673 173.142 39.074C172.902 39.374 172.782 39.794 172.782 40.334C172.782 40.8673 172.902 41.2873 173.142 41.594C173.382 41.9007 173.716 42.054 174.142 42.054C174.396 42.054 174.632 41.9907 174.852 41.864C175.072 41.7373 175.249 41.564 175.382 41.344L176.062 41.944C175.876 42.264 175.612 42.5107 175.272 42.684C174.939 42.8507 174.546 42.934 174.092 42.934ZM176.746 35.414H177.876V38.484C178.029 38.2507 178.249 38.0673 178.536 37.934C178.822 37.8007 179.132 37.734 179.466 37.734C180.039 37.734 180.492 37.924 180.826 38.304C181.166 38.684 181.336 39.2073 181.336 39.874V42.834H180.196V39.934C180.196 39.5073 180.106 39.1773 179.926 38.944C179.752 38.704 179.506 38.584 179.186 38.584C178.792 38.584 178.476 38.724 178.236 39.004C177.996 39.284 177.876 39.6507 177.876 40.104V42.834H176.746V35.414ZM183.89 42.934C183.564 42.934 183.27 42.8673 183.01 42.734C182.757 42.594 182.557 42.404 182.41 42.164C182.27 41.924 182.2 41.654 182.2 41.354C182.2 40.8473 182.397 40.4573 182.79 40.184C183.19 39.9107 183.754 39.774 184.48 39.774H185.35V39.544C185.35 39.244 185.264 39.014 185.09 38.854C184.917 38.694 184.674 38.614 184.36 38.614C184.06 38.614 183.777 38.6707 183.51 38.784C183.25 38.8907 183.034 39.0473 182.86 39.254L182.34 38.584C182.594 38.3107 182.9 38.1007 183.26 37.954C183.62 37.8073 184 37.734 184.4 37.734C185.054 37.734 185.564 37.8907 185.93 38.204C186.297 38.5107 186.48 38.944 186.48 39.504V41.804C186.48 41.944 186.494 42.114 186.52 42.314C186.547 42.5073 186.577 42.6807 186.61 42.834H185.6C185.54 42.694 185.497 42.484 185.47 42.204H185.45C185.064 42.6907 184.544 42.934 183.89 42.934ZM184.15 42.074C184.49 42.074 184.774 41.984 185 41.804C185.234 41.6173 185.35 41.3907 185.35 41.124V40.544H184.45C184.084 40.544 183.8 40.614 183.6 40.754C183.407 40.894 183.31 41.094 183.31 41.354C183.31 41.5807 183.384 41.7573 183.53 41.884C183.677 42.0107 183.884 42.074 184.15 42.074ZM188.424 37.154C188.198 37.154 188.014 37.094 187.874 36.974C187.741 36.8473 187.674 36.6807 187.674 36.474C187.674 36.2607 187.741 36.094 187.874 35.974C188.014 35.8473 188.198 35.784 188.424 35.784C188.651 35.784 188.831 35.8473 188.964 35.974C189.104 36.094 189.174 36.2607 189.174 36.474C189.174 36.6807 189.104 36.8473 188.964 36.974C188.831 37.094 188.651 37.154 188.424 37.154ZM187.854 37.834H188.994V42.834H187.854V37.834ZM190.261 39.134C190.261 38.514 190.248 38.0807 190.221 37.834H191.281C191.314 38.1473 191.331 38.4407 191.331 38.714H191.351C191.478 38.414 191.694 38.1773 192.001 38.004C192.308 37.824 192.648 37.734 193.021 37.734C193.601 37.734 194.038 37.9273 194.331 38.314C194.624 38.694 194.771 39.2607 194.771 40.014V42.834H193.631V40.004C193.631 39.5373 193.554 39.194 193.401 38.974C193.254 38.754 193.018 38.644 192.691 38.644C192.304 38.644 191.991 38.7807 191.751 39.054C191.511 39.3207 191.391 39.6673 191.391 40.094V42.834H190.261V39.134ZM198.43 35.834H200.67C201.477 35.834 202.087 36.0207 202.5 36.394C202.92 36.7607 203.13 37.304 203.13 38.024C203.13 38.7907 202.913 39.374 202.48 39.774C202.053 40.1673 201.433 40.364 200.62 40.364H199.69V42.834H198.43V35.834ZM200.73 39.344C201.11 39.344 201.4 39.2373 201.6 39.024C201.8 38.804 201.9 38.4873 201.9 38.074C201.9 37.674 201.793 37.3707 201.58 37.164C201.373 36.9573 201.067 36.854 200.66 36.854H199.69V39.344H200.73ZM205.4 42.934C204.993 42.934 204.683 42.824 204.47 42.604C204.263 42.3773 204.16 42.0473 204.16 41.614V35.414H205.3V41.624C205.3 41.804 205.336 41.934 205.41 42.014C205.483 42.0873 205.603 42.124 205.77 42.124C205.936 42.124 206.12 42.0807 206.32 41.994L206.49 42.624C206.203 42.8307 205.84 42.934 205.4 42.934ZM208.558 42.934C208.232 42.934 207.938 42.8673 207.678 42.734C207.425 42.594 207.225 42.404 207.078 42.164C206.938 41.924 206.868 41.654 206.868 41.354C206.868 40.8473 207.065 40.4573 207.458 40.184C207.858 39.9107 208.422 39.774 209.148 39.774H210.018V39.544C210.018 39.244 209.932 39.014 209.758 38.854C209.585 38.694 209.342 38.614 209.028 38.614C208.728 38.614 208.445 38.6707 208.178 38.784C207.918 38.8907 207.702 39.0473 207.528 39.254L207.008 38.584C207.262 38.3107 207.568 38.1007 207.928 37.954C208.288 37.8073 208.668 37.734 209.068 37.734C209.722 37.734 210.232 37.8907 210.598 38.204C210.965 38.5107 211.148 38.944 211.148 39.504V41.804C211.148 41.944 211.162 42.114 211.188 42.314C211.215 42.5073 211.245 42.6807 211.278 42.834H210.268C210.208 42.694 210.165 42.484 210.138 42.204H210.118C209.732 42.6907 209.212 42.934 208.558 42.934ZM208.818 42.074C209.158 42.074 209.442 41.984 209.668 41.804C209.902 41.6173 210.018 41.3907 210.018 41.124V40.544H209.118C208.752 40.544 208.468 40.614 208.268 40.754C208.075 40.894 207.978 41.094 207.978 41.354C207.978 41.5807 208.052 41.7573 208.198 41.884C208.345 42.0107 208.552 42.074 208.818 42.074ZM214.352 42.934C213.866 42.934 213.482 42.794 213.202 42.514C212.929 42.2273 212.792 41.834 212.792 41.334V38.684H211.892V37.834H212.792V36.534L213.892 36.204H213.932V37.834H215.372V38.684H213.932V41.184C213.932 41.484 213.996 41.7073 214.122 41.854C214.256 41.994 214.459 42.064 214.732 42.064C215.026 42.064 215.266 42.024 215.452 41.944L215.512 42.744C215.239 42.8707 214.852 42.934 214.352 42.934ZM216.755 38.614H215.935V37.834H216.755V37.224C216.755 36.7373 216.905 36.3573 217.205 36.084C217.505 35.804 217.915 35.664 218.435 35.664C218.662 35.664 218.875 35.7007 219.075 35.774C219.275 35.8407 219.442 35.9373 219.575 36.064L219.175 36.744C219.095 36.6773 219.002 36.624 218.895 36.584C218.788 36.544 218.678 36.524 218.565 36.524C218.358 36.524 218.195 36.594 218.075 36.734C217.955 36.8673 217.895 37.054 217.895 37.294V37.834H219.305V38.614H217.895V42.834H216.755V38.614ZM221.917 42.934C221.131 42.934 220.511 42.704 220.057 42.244C219.611 41.7773 219.387 41.1407 219.387 40.334C219.387 39.5273 219.611 38.894 220.057 38.434C220.511 37.9673 221.131 37.734 221.917 37.734C222.704 37.734 223.321 37.9673 223.767 38.434C224.221 38.894 224.447 39.5273 224.447 40.334C224.447 41.1407 224.221 41.7773 223.767 42.244C223.321 42.704 222.704 42.934 221.917 42.934ZM221.917 42.084C222.351 42.084 222.691 41.9307 222.937 41.624C223.184 41.3107 223.307 40.8807 223.307 40.334C223.307 39.7873 223.184 39.3607 222.937 39.054C222.691 38.7407 222.351 38.584 221.917 38.584C221.484 38.584 221.144 38.7407 220.897 39.054C220.651 39.3607 220.527 39.7873 220.527 40.334C220.527 40.8807 220.651 41.3107 220.897 41.624C221.144 41.9307 221.484 42.084 221.917 42.084ZM225.37 39.054C225.37 38.4873 225.36 38.0807 225.34 37.834H226.41C226.437 38.094 226.45 38.3873 226.45 38.714V38.814H226.48C226.607 38.4807 226.823 38.2173 227.13 38.024C227.437 37.8307 227.79 37.734 228.19 37.734C228.31 37.734 228.41 37.744 228.49 37.764V38.664C228.423 38.6507 228.333 38.644 228.22 38.644C227.907 38.644 227.617 38.7307 227.35 38.904C227.09 39.0707 226.883 39.3007 226.73 39.594C226.577 39.8873 226.5 40.204 226.5 40.544V42.834H225.37V39.054ZM229.129 39.134C229.129 38.534 229.112 38.1007 229.079 37.834H230.079C230.112 38.1207 230.129 38.414 230.129 38.714H230.149C230.262 38.4073 230.459 38.1673 230.739 37.994C231.019 37.8207 231.345 37.734 231.719 37.734C232.079 37.734 232.385 37.8173 232.639 37.984C232.892 38.144 233.062 38.3673 233.149 38.654C233.282 38.3673 233.485 38.144 233.759 37.984C234.039 37.8173 234.352 37.734 234.699 37.734C235.252 37.734 235.685 37.9107 235.999 38.264C236.312 38.6173 236.469 39.1107 236.469 39.744V42.834H235.349V39.864C235.349 39.4773 235.265 39.1773 235.099 38.964C234.932 38.7507 234.699 38.644 234.399 38.644C234.085 38.644 233.832 38.7573 233.639 38.984C233.452 39.204 233.359 39.5007 233.359 39.874V42.834H232.239V39.904C232.239 39.4973 232.159 39.1873 231.999 38.974C231.845 38.754 231.622 38.644 231.329 38.644C231.022 38.644 230.765 38.764 230.559 39.004C230.352 39.244 230.249 39.544 230.249 39.904V42.834H229.129V39.134Z" fill="black"/>
<path d="M67.4223 24.8378C72.9223 24.8378 73.8723 20.3378 73.8723 16.0878C73.8723 11.8378 72.9223 7.33777 66.9723 7.33777H60.1973C58.6973 7.33777 57.6473 7.96277 57.6473 9.96277V22.2128C57.6473 24.2128 58.6973 24.8378 60.1973 24.8378H67.4223ZM65.8223 9.96277C69.8223 9.96277 70.4723 12.5878 70.4723 16.0878C70.4723 19.5878 69.8223 22.2128 65.8223 22.2128H62.1973C61.1973 22.2128 60.9473 21.9628 60.9473 20.9628V11.2128C60.9473 10.2128 61.1973 9.96277 62.1973 9.96277H65.8223ZM87.9729 24.8378V22.5878H81.4979C78.9729 22.5878 78.6479 21.1878 78.6479 19.1878H86.3479C87.8479 19.1878 88.3979 18.1878 88.3979 16.6878C88.3979 12.4378 85.7479 11.4378 82.0229 11.4378C77.5229 11.4378 75.6229 12.9128 75.6229 18.1878C75.6229 22.4628 76.3729 24.8378 80.6229 24.8378H87.9729ZM78.6479 16.9378C78.6479 14.6628 79.5229 13.6878 82.0229 13.6878C83.7729 13.6878 85.3729 14.4128 85.3729 16.1628C85.3729 16.5378 85.2979 16.9378 84.7229 16.9378H78.6479ZM92.0743 11.5878H89.0493L94.0993 23.8128C94.5743 25.0128 95.4243 24.9878 96.1493 24.9878C96.8743 24.9878 97.6993 25.0128 98.1743 23.8128L103.224 11.5878H100.199L96.4993 21.4128C96.4243 21.6128 96.3243 21.9378 96.1493 21.9378C95.9743 21.9378 95.8743 21.6128 95.7993 21.4128L92.0743 11.5878ZM124.436 24.8378V22.2128H118.686C114.436 22.2128 113.111 20.8378 113.111 16.0878C113.111 11.3378 114.436 9.96277 118.686 9.96277H124.161V7.33777H117.136C111.136 7.33777 109.711 11.0878 109.711 16.0878C109.711 21.0878 111.136 24.8378 117.136 24.8378H124.436ZM132.502 11.4378C127.777 11.4378 125.452 12.9128 125.452 18.1878C125.452 23.4878 127.777 24.9878 132.502 24.9878C137.227 24.9878 139.552 23.4878 139.552 18.1878C139.552 12.9128 137.227 11.4378 132.502 11.4378ZM128.477 18.1878C128.477 14.9378 129.502 13.6878 132.502 13.6878C135.502 13.6878 136.527 14.9378 136.527 18.1878C136.527 21.4628 135.502 22.7378 132.502 22.7378C129.502 22.7378 128.477 21.4628 128.477 18.1878ZM141.453 24.8378H144.378V14.5878C144.378 14.0878 144.628 13.8378 145.128 13.8378H147.803C149.803 13.8378 150.578 14.8878 150.578 16.8878V24.8378H153.503V16.1128C153.503 12.6128 151.353 11.5878 148.353 11.5878H143.703C142.203 11.5878 141.453 12.3378 141.453 13.8378V24.8378ZM155.483 24.8378H163.958C166.483 24.8378 167.208 23.4878 167.208 21.4628C167.208 18.7628 165.433 18.2128 163.083 17.5378L160.233 16.7378C159.258 16.4878 158.158 16.1378 158.158 15.0378C158.158 14.0628 158.583 13.8378 159.558 13.8378H166.583V11.5878H159.108C156.408 11.5878 155.308 12.5878 155.308 14.9878C155.308 16.9128 155.958 18.0378 158.833 18.8378L161.383 19.5378C162.583 19.8628 164.158 20.0128 164.158 21.3878C164.158 22.2628 163.533 22.5878 162.933 22.5878H155.483V24.8378ZM175.666 11.4378C170.941 11.4378 168.616 12.9128 168.616 18.1878C168.616 23.4878 170.941 24.9878 175.666 24.9878C180.391 24.9878 182.716 23.4878 182.716 18.1878C182.716 12.9128 180.391 11.4378 175.666 11.4378ZM171.641 18.1878C171.641 14.9378 172.666 13.6878 175.666 13.6878C178.666 13.6878 179.691 14.9378 179.691 18.1878C179.691 21.4628 178.666 22.7378 175.666 22.7378C172.666 22.7378 171.641 21.4628 171.641 18.1878ZM184.617 24.8378H187.542V7.33777H184.617V24.8378ZM201.791 24.8378V22.5878H195.316C192.791 22.5878 192.466 21.1878 192.466 19.1878H200.166C201.666 19.1878 202.216 18.1878 202.216 16.6878C202.216 12.4378 199.566 11.4378 195.841 11.4378C191.341 11.4378 189.441 12.9128 189.441 18.1878C189.441 22.4628 190.191 24.8378 194.441 24.8378H201.791ZM192.466 16.9378C192.466 14.6628 193.341 13.6878 195.841 13.6878C197.591 13.6878 199.191 14.4128 199.191 16.1628C199.191 16.5378 199.116 16.9378 198.541 16.9378H192.466Z" fill="#EE0033"/>
</svg>
