<svg width="72" height="72" viewBox="0 0 72 72" fill="none" xmlns="http://www.w3.org/2000/svg">
<rect opacity="0.1" width="72" height="72" rx="8" fill="#EF0F3F" fill-opacity="0.75"/>
<path d="M51.8394 44.0819V27.906L37.4002 36.5699C37.2744 36.6391 37.1416 36.6947 37.0042 36.7362V53.3454L51.5263 44.6379C51.7209 44.5202 51.8394 44.3091 51.8392 44.0818L51.8394 44.0819Z" fill="#FFADBF"/>
<path d="M21.1927 44.6346L35.7148 53.3442V36.7364C35.579 36.6957 35.4481 36.6406 35.3239 36.5728L20.8799 27.9061V44.082C20.8804 44.3085 20.9989 44.5182 21.1928 44.6354L21.1927 44.6346Z" fill="#D7002E"/>
<path d="M36.7424 35.4601L51.5956 26.5487C51.5742 26.529 51.5513 26.5109 51.5273 26.4945L36.6921 17.5935H36.6923C36.4864 17.4755 36.2337 17.4755 36.0277 17.5935L21.1925 26.4945H21.1928C21.1688 26.5109 21.1458 26.529 21.1245 26.5487L35.9825 35.4635C36.2179 35.5998 36.5084 35.5985 36.7424 35.4603L36.7424 35.4601Z" fill="#FFADBF"/>
</svg>
