<svg width="72" height="72" viewBox="0 0 72 72" fill="none" xmlns="http://www.w3.org/2000/svg">
<rect opacity="0.1" width="72" height="72" rx="8" fill="#FD1F9B"/>
<path d="M45 31.5L42.885 29.37L33 39.255L29.115 35.385L27 37.5L33 43.5L45 31.5ZM46.5 22.5H40.23C39.6 20.76 37.95 19.5 36 19.5C34.05 19.5 32.4 20.76 31.77 22.5H25.5C25.29 22.5 25.095 22.515 24.9 22.56C24.315 22.68 23.79 22.98 23.385 23.385C23.115 23.655 22.89 23.985 22.74 24.345C22.59 24.69 22.5 25.08 22.5 25.5V46.5C22.5 46.905 22.59 47.31 22.74 47.67C22.89 48.03 23.115 48.345 23.385 48.63C23.79 49.035 24.315 49.335 24.9 49.455C25.095 49.485 25.29 49.5 25.5 49.5H46.5C48.15 49.5 49.5 48.15 49.5 46.5V25.5C49.5 23.85 48.15 22.5 46.5 22.5ZM36 22.125C36.615 22.125 37.125 22.635 37.125 23.25C37.125 23.865 36.615 24.375 36 24.375C35.385 24.375 34.875 23.865 34.875 23.25C34.875 22.635 35.385 22.125 36 22.125ZM46.5 46.5H25.5V25.5H46.5V46.5Z" fill="#BB106F"/>
</svg>
