<svg width="72" height="72" viewBox="0 0 72 72" fill="none" xmlns="http://www.w3.org/2000/svg">
<rect opacity="0.1" width="72" height="72" rx="8" fill="#FF9900"/>
<g clip-path="url(#clip0_5052_44269)">
<path d="M46.5 51H25.5C24.3065 51 23.1619 50.5259 22.318 49.682C21.4741 48.8381 21 47.6935 21 46.5V22.5C21 22.1022 21.158 21.7206 21.4393 21.4393C21.7206 21.158 22.1022 21 22.5 21H43.5C43.8978 21 44.2794 21.158 44.5607 21.4393C44.842 21.7206 45 22.1022 45 22.5V40.5H51V46.5C51 47.6935 50.5259 48.8381 49.682 49.682C48.8381 50.5259 47.6935 51 46.5 51ZM45 43.5V46.5C45 46.8978 45.158 47.2794 45.4393 47.5607C45.7206 47.842 46.1022 48 46.5 48C46.8978 48 47.2794 47.842 47.5607 47.5607C47.842 47.2794 48 46.8978 48 46.5V43.5H45ZM42 48V24H24V46.5C24 46.8978 24.158 47.2794 24.4393 47.5607C24.7206 47.842 25.1022 48 25.5 48H42ZM27 28.5H39V31.5H27V28.5ZM27 34.5H39V37.5H27V34.5ZM27 40.5H34.5V43.5H27V40.5Z" fill="#FF8412"/>
</g>
<defs>
<clipPath id="clip0_5052_44269">
<rect width="36" height="36" fill="white" transform="translate(18 18)"/>
</clipPath>
</defs>
</svg>
