<svg width="50" height="50" viewBox="0 0 50 50" fill="none" xmlns="http://www.w3.org/2000/svg">
<circle cx="25" cy="25" r="25" fill="#FFF5F6"/>
<path d="M40.2774 33.2724V17.6707L26.3507 26.0271C26.2294 26.0937 26.1013 26.1474 25.9688 26.1875V42.2071L39.9754 33.8087C40.1632 33.6952 40.2775 33.4916 40.2772 33.2723L40.2774 33.2724Z" fill="#FFADBF"/>
<path d="M10.7184 33.8057L24.7251 42.2061V26.1878C24.5942 26.1485 24.4679 26.0953 24.3481 26.03L10.4167 17.6709V33.2726C10.4173 33.4911 10.5316 33.6934 10.7185 33.8064L10.7184 33.8057Z" fill="#D7002E"/>
<path d="M25.7164 24.9567L40.0423 16.3616C40.0218 16.3426 39.9996 16.3252 39.9765 16.3093L25.6678 7.72425H25.6681C25.4694 7.61047 25.2257 7.61047 25.0271 7.72425L10.7184 16.3093H10.7187C10.6955 16.3252 10.6734 16.3426 10.6528 16.3616L24.9835 24.96C25.2105 25.0915 25.4907 25.0902 25.7164 24.9569L25.7164 24.9567Z" fill="#FFADBF"/>
</svg>
