<svg width="29" height="33" viewBox="0 0 29 33" fill="none" xmlns="http://www.w3.org/2000/svg">
<path d="M28.0797 24.184V9.80542L15.2448 17.5067C15.133 17.5681 15.015 17.6176 14.8928 17.6545V32.4182L27.8014 24.6782C27.9744 24.5736 28.0797 24.386 28.0795 24.1839L28.0797 24.184Z" fill="#FFADBF"/>
<path d="M0.838096 24.6753L13.7467 32.4172V17.6547C13.626 17.6185 13.5096 17.5695 13.3992 17.5093L0.560059 9.80554V24.1841C0.560538 24.3854 0.665881 24.5718 0.838163 24.676L0.838096 24.6753Z" fill="#D7002E"/>
<path d="M14.6602 16.5201L27.863 8.59891C27.844 8.58139 27.8236 8.56532 27.8023 8.55068L14.6154 0.638702H14.6157C14.4326 0.533844 14.208 0.533844 14.0249 0.638702L0.838056 8.55068H0.838296C0.81694 8.56532 0.796544 8.58139 0.777588 8.59891L13.9847 16.5232C14.1939 16.6444 14.4521 16.6431 14.6602 16.5203L14.6602 16.5201Z" fill="#FFADBF"/>
</svg>
