<svg width="32" height="32" viewBox="0 0 32 32" fill="none" xmlns="http://www.w3.org/2000/svg">
<circle cx="16" cy="16" r="16" fill="#FFF5F6"/>
<g clip-path="url(#clip0_5052_44787)">
<path d="M22.4168 25.1666H9.5835C8.85415 25.1666 8.15468 24.8769 7.63895 24.3612C7.12323 23.8455 6.8335 23.146 6.8335 22.4166V7.74998C6.8335 7.50686 6.93007 7.27371 7.10198 7.1018C7.27389 6.92989 7.50705 6.83331 7.75016 6.83331H20.5835C20.8266 6.83331 21.0598 6.92989 21.2317 7.1018C21.4036 7.27371 21.5002 7.50686 21.5002 7.74998V18.75H25.1668V22.4166C25.1668 23.146 24.8771 23.8455 24.3614 24.3612C23.8456 24.8769 23.1462 25.1666 22.4168 25.1666ZM21.5002 20.5833V22.4166C21.5002 22.6598 21.5967 22.8929 21.7686 23.0648C21.9406 23.2367 22.1737 23.3333 22.4168 23.3333C22.6599 23.3333 22.8931 23.2367 23.065 23.0648C23.2369 22.8929 23.3335 22.6598 23.3335 22.4166V20.5833H21.5002ZM19.6668 23.3333V8.66665H8.66683V22.4166C8.66683 22.6598 8.76341 22.8929 8.93532 23.0648C9.10722 23.2367 9.34038 23.3333 9.5835 23.3333H19.6668ZM10.5002 11.4166H17.8335V13.25H10.5002V11.4166ZM10.5002 15.0833H17.8335V16.9166H10.5002V15.0833ZM10.5002 18.75H15.0835V20.5833H10.5002V18.75Z" fill="#D7002E"/>
</g>
<defs>
<clipPath id="clip0_5052_44787">
<rect width="22" height="22" fill="white" transform="translate(5 5)"/>
</clipPath>
</defs>
</svg>
